<svg width="100" height="110" viewBox="0 0 100 110" fill="none" xmlns="http://www.w3.org/2000/svg">
  <!-- Outer hexagonal frame -->
  <path d="M50 0 L100 30 L100 80 L50 110 L0 80 L0 30 Z" stroke="#C87941" stroke-width="1" fill="none" opacity="0.3"/>
  <!-- Inner hexagonal fill -->
  <path d="M50 8 L92 34 L92 76 L50 102 L8 76 L8 34 Z" stroke="#2A2222" stroke-width="0.5" fill="#1C1616"/>
  <!-- Stepped pyramid layers (Aztec temple) -->
  <rect x="25" y="65" width="50" height="6" fill="none" stroke="#C87941" stroke-width="0.8" opacity="0.5"/>
  <rect x="30" y="56" width="40" height="6" fill="none" stroke="#C87941" stroke-width="0.8" opacity="0.6"/>
  <rect x="35" y="47" width="30" height="6" fill="none" stroke="#C87941" stroke-width="0.8" opacity="0.7"/>
  <!-- Central keyhole circle -->
  <circle cx="50" cy="36" r="10" stroke="#C87941" stroke-width="1.2" fill="none"/>
  <circle cx="50" cy="36" r="3.5" fill="#C87941"/>
  <!-- Keyhole body -->
  <path d="M47 42 L45 62 L50 66 L55 62 L53 42" fill="#C87941" opacity="0.8"/>
  <!-- Art Deco sunburst lines -->
  <line x1="50" y1="8" x2="50" y2="20" stroke="#8B2D3A" stroke-width="0.5" opacity="0.4"/>
  <line x1="35" y1="14" x2="42" y2="24" stroke="#8B2D3A" stroke-width="0.5" opacity="0.3"/>
  <line x1="65" y1="14" x2="58" y2="24" stroke="#8B2D3A" stroke-width="0.5" opacity="0.3"/>
  <!-- Top diamond -->
  <rect x="48" y="3" width="4" height="4" fill="#8B2D3A" transform="rotate(45 50 5)" opacity="0.5"/>
  <!-- Side diamonds -->
  <rect x="3" y="53" width="3" height="3" fill="#C87941" transform="rotate(45 4.5 54.5)" opacity="0.25"/>
  <rect x="94" y="53" width="3" height="3" fill="#C87941" transform="rotate(45 95.5 54.5)" opacity="0.25"/>
</svg>
